<svg xmlns="http://www.w3.org/2000/svg" viewBox="0 0 200 240" width="200" height="240"><defs><filter id="shdw"><feDropShadow dx="0" dy="3" stdDeviation="3" flood-color="#000" flood-opacity="0.12"/></filter><linearGradient id="brand" x1="0" x2="1" y1="0" y2="1"><stop offset="0" stop-color="#006d77"/><stop offset="1" stop-color="#e29578"/></linearGradient></defs><rect x="6" y="6" width="188" height="228" rx="14" fill="white" filter="url(#shdw)"/><path d="M 6 6 L 194 6 Q 200 6 200 12 L 200 38 L 6 38 Z" fill="url(#brand)"/><g transform="translate(28,22)"><g><path d="M -8 -2 Q -8 -8 0 -8 Q 8 -8 8 -2 L 8 4 Q 8 7 5 7 L 4 7 Q 4 4 2 4 L -2 4 Q -4 4 -4 7 L -5 7 Q -8 7 -8 4 Z" fill="#006d77"/><circle cx="0" cy="-2" r="1.5" fill="white"/></g></g><text x="52" y="20" fill="white" font-size="11" font-weight="800" font-family="PingFang SC,Microsoft YaHei,sans-serif">客服微信</text><text x="52" y="32" fill="white" font-size="7" letter-spacing="1" font-family="Arial,sans-serif" opacity="0.9">CUSTOMER SERVICE</text><rect x="50" y="56" width="28" height="28" fill="#006d77"/><rect x="54" y="60" width="20" height="20" fill="white"/><rect x="58" y="64" width="12" height="12" fill="#006d77"/><rect x="122" y="56" width="28" height="28" fill="#006d77"/><rect x="126" y="60" width="20" height="20" fill="white"/><rect x="130" y="64" width="12" height="12" fill="#006d77"/><rect x="50" y="128" width="28" height="28" fill="#006d77"/><rect x="54" y="132" width="20" height="20" fill="white"/><rect x="58" y="136" width="12" height="12" fill="#006d77"/><rect x="82" y="80" width="4" height="4" fill="#006d77"/><rect x="74" y="88" width="4" height="4" fill="#006d77"/><rect x="86" y="80" width="4" height="4" fill="white"/><rect x="74" y="92" width="4" height="4" fill="white"/><rect x="90" y="80" width="4" height="4" fill="#006d77"/><rect x="74" y="96" width="4" height="4" fill="#006d77"/><rect x="94" y="80" width="4" height="4" fill="white"/><rect x="74" y="100" width="4" height="4" fill="white"/><rect x="98" y="80" width="4" height="4" fill="#006d77"/><rect x="74" y="104" width="4" height="4" fill="#006d77"/><rect x="102" y="80" width="4" height="4" fill="white"/><rect x="74" y="108" width="4" height="4" fill="white"/><rect x="106" y="80" width="4" height="4" fill="#006d77"/><rect x="74" y="112" width="4" height="4" fill="#006d77"/><rect x="110" y="80" width="4" height="4" fill="white"/><rect x="74" y="116" width="4" height="4" fill="white"/><rect x="114" y="80" width="4" height="4" fill="#006d77"/><rect x="74" y="120" width="4" height="4" fill="#006d77"/><rect x="118" y="80" width="4" height="4" fill="white"/><rect x="74" y="124" width="4" height="4" fill="white"/><rect x="82" y="56" width="4" height="4" fill="#006d77"/><rect x="86" y="56" width="4" height="4" fill="#006d77"/><rect x="94" y="56" width="4" height="4" fill="#006d77"/><rect x="102" y="56" width="4" height="4" fill="#006d77"/><rect x="106" y="56" width="4" height="4" fill="#006d77"/><rect x="110" y="56" width="4" height="4" fill="#006d77"/><rect x="114" y="56" width="4" height="4" fill="#006d77"/><rect x="118" y="56" width="4" height="4" fill="#006d77"/><rect x="82" y="60" width="4" height="4" fill="#006d77"/><rect x="86" y="60" width="4" height="4" fill="#006d77"/><rect x="90" y="60" width="4" height="4" fill="#006d77"/><rect x="94" y="60" width="4" height="4" fill="#006d77"/><rect x="102" y="60" width="4" height="4" fill="#006d77"/><rect x="106" y="60" width="4" height="4" fill="#006d77"/><rect x="110" y="60" width="4" height="4" fill="#006d77"/><rect x="118" y="60" width="4" height="4" fill="#006d77"/><rect x="110" y="64" width="4" height="4" fill="#006d77"/><rect x="82" y="68" width="4" height="4" fill="#006d77"/><rect x="90" y="68" width="4" height="4" fill="#006d77"/><rect x="102" y="68" width="4" height="4" fill="#006d77"/><rect x="106" y="68" width="4" height="4" fill="#006d77"/><rect x="118" y="68" width="4" height="4" fill="#006d77"/><rect x="86" y="72" width="4" height="4" fill="#006d77"/><rect x="102" y="72" width="4" height="4" fill="#006d77"/><rect x="110" y="72" width="4" height="4" fill="#006d77"/><rect x="82" y="76" width="4" height="4" fill="#006d77"/><rect x="98" y="76" width="4" height="4" fill="#006d77"/><rect x="102" y="76" width="4" height="4" fill="#006d77"/><rect x="110" y="76" width="4" height="4" fill="#006d77"/><rect x="118" y="76" width="4" height="4" fill="#006d77"/><rect x="86" y="80" width="4" height="4" fill="#006d77"/><rect x="94" y="80" width="4" height="4" fill="#006d77"/><rect x="106" y="80" width="4" height="4" fill="#006d77"/><rect x="114" y="80" width="4" height="4" fill="#006d77"/><rect x="118" y="80" width="4" height="4" fill="#006d77"/><rect x="90" y="84" width="4" height="4" fill="#006d77"/><rect x="94" y="84" width="4" height="4" fill="#006d77"/><rect x="102" y="84" width="4" height="4" fill="#006d77"/><rect x="110" y="84" width="4" height="4" fill="#006d77"/><rect x="118" y="84" width="4" height="4" fill="#006d77"/><rect x="50" y="88" width="4" height="4" fill="#006d77"/><rect x="62" y="88" width="4" height="4" fill="#006d77"/><rect x="130" y="88" width="4" height="4" fill="#006d77"/><rect x="138" y="88" width="4" height="4" fill="#006d77"/><rect x="142" y="88" width="4" height="4" fill="#006d77"/><rect x="58" y="92" width="4" height="4" fill="#006d77"/><rect x="62" y="92" width="4" height="4" fill="#006d77"/><rect x="66" y="92" width="4" height="4" fill="#006d77"/><rect x="78" y="92" width="4" height="4" fill="#006d77"/><rect x="118" y="92" width="4" height="4" fill="#006d77"/><rect x="126" y="92" width="4" height="4" fill="#006d77"/><rect x="134" y="92" width="4" height="4" fill="#006d77"/><rect x="50" y="96" width="4" height="4" fill="#006d77"/><rect x="62" y="96" width="4" height="4" fill="#006d77"/><rect x="66" y="96" width="4" height="4" fill="#006d77"/><rect x="78" y="96" width="4" height="4" fill="#006d77"/><rect x="138" y="96" width="4" height="4" fill="#006d77"/><rect x="142" y="96" width="4" height="4" fill="#006d77"/><rect x="146" y="96" width="4" height="4" fill="#006d77"/><rect x="54" y="100" width="4" height="4" fill="#006d77"/><rect x="58" y="100" width="4" height="4" fill="#006d77"/><rect x="66" y="100" width="4" height="4" fill="#006d77"/><rect x="74" y="100" width="4" height="4" fill="#006d77"/><rect x="122" y="100" width="4" height="4" fill="#006d77"/><rect x="130" y="100" width="4" height="4" fill="#006d77"/><rect x="146" y="100" width="4" height="4" fill="#006d77"/><rect x="50" y="104" width="4" height="4" fill="#006d77"/><rect x="54" y="104" width="4" height="4" fill="#006d77"/><rect x="74" y="104" width="4" height="4" fill="#006d77"/><rect x="118" y="104" width="4" height="4" fill="#006d77"/><rect x="58" y="108" width="4" height="4" fill="#006d77"/><rect x="66" y="108" width="4" height="4" fill="#006d77"/><rect x="74" y="108" width="4" height="4" fill="#006d77"/><rect x="126" y="108" width="4" height="4" fill="#006d77"/><rect x="134" y="108" width="4" height="4" fill="#006d77"/><rect x="146" y="108" width="4" height="4" fill="#006d77"/><rect x="54" y="112" width="4" height="4" fill="#006d77"/><rect x="74" y="112" width="4" height="4" fill="#006d77"/><rect x="122" y="112" width="4" height="4" fill="#006d77"/><rect x="138" y="112" width="4" height="4" fill="#006d77"/><rect x="50" y="116" width="4" height="4" fill="#006d77"/><rect x="54" y="116" width="4" height="4" fill="#006d77"/><rect x="58" y="116" width="4" height="4" fill="#006d77"/><rect x="62" y="116" width="4" height="4" fill="#006d77"/><rect x="70" y="116" width="4" height="4" fill="#006d77"/><rect x="74" y="116" width="4" height="4" fill="#006d77"/><rect x="78" y="116" width="4" height="4" fill="#006d77"/><rect x="134" y="116" width="4" height="4" fill="#006d77"/><rect x="142" y="116" width="4" height="4" fill="#006d77"/><rect x="146" y="116" width="4" height="4" fill="#006d77"/><rect x="62" y="120" width="4" height="4" fill="#006d77"/><rect x="66" y="120" width="4" height="4" fill="#006d77"/><rect x="70" y="120" width="4" height="4" fill="#006d77"/><rect x="126" y="120" width="4" height="4" fill="#006d77"/><rect x="130" y="120" width="4" height="4" fill="#006d77"/><rect x="134" y="120" width="4" height="4" fill="#006d77"/><rect x="142" y="120" width="4" height="4" fill="#006d77"/><rect x="146" y="120" width="4" height="4" fill="#006d77"/><rect x="50" y="124" width="4" height="4" fill="#006d77"/><rect x="54" y="124" width="4" height="4" fill="#006d77"/><rect x="58" y="124" width="4" height="4" fill="#006d77"/><rect x="70" y="124" width="4" height="4" fill="#006d77"/><rect x="74" y="124" width="4" height="4" fill="#006d77"/><rect x="78" y="124" width="4" height="4" fill="#006d77"/><rect x="94" y="124" width="4" height="4" fill="#006d77"/><rect x="106" y="124" width="4" height="4" fill="#006d77"/><rect x="134" y="124" width="4" height="4" fill="#006d77"/><rect x="146" y="124" width="4" height="4" fill="#006d77"/><rect x="90" y="128" width="4" height="4" fill="#006d77"/><rect x="94" y="128" width="4" height="4" fill="#006d77"/><rect x="102" y="128" width="4" height="4" fill="#006d77"/><rect x="106" y="128" width="4" height="4" fill="#006d77"/><rect x="110" y="128" width="4" height="4" fill="#006d77"/><rect x="118" y="128" width="4" height="4" fill="#006d77"/><rect x="126" y="128" width="4" height="4" fill="#006d77"/><rect x="134" y="128" width="4" height="4" fill="#006d77"/><rect x="98" y="132" width="4" height="4" fill="#006d77"/><rect x="102" y="132" width="4" height="4" fill="#006d77"/><rect x="106" y="132" width="4" height="4" fill="#006d77"/><rect x="110" y="132" width="4" height="4" fill="#006d77"/><rect x="114" y="132" width="4" height="4" fill="#006d77"/><rect x="126" y="132" width="4" height="4" fill="#006d77"/><rect x="130" y="132" width="4" height="4" fill="#006d77"/><rect x="138" y="132" width="4" height="4" fill="#006d77"/><rect x="142" y="132" width="4" height="4" fill="#006d77"/><rect x="86" y="136" width="4" height="4" fill="#006d77"/><rect x="90" y="136" width="4" height="4" fill="#006d77"/><rect x="94" y="136" width="4" height="4" fill="#006d77"/><rect x="102" y="136" width="4" height="4" fill="#006d77"/><rect x="106" y="136" width="4" height="4" fill="#006d77"/><rect x="110" y="136" width="4" height="4" fill="#006d77"/><rect x="114" y="136" width="4" height="4" fill="#006d77"/><rect x="122" y="136" width="4" height="4" fill="#006d77"/><rect x="126" y="136" width="4" height="4" fill="#006d77"/><rect x="130" y="136" width="4" height="4" fill="#006d77"/><rect x="138" y="136" width="4" height="4" fill="#006d77"/><rect x="142" y="136" width="4" height="4" fill="#006d77"/><rect x="82" y="140" width="4" height="4" fill="#006d77"/><rect x="110" y="140" width="4" height="4" fill="#006d77"/><rect x="114" y="140" width="4" height="4" fill="#006d77"/><rect x="122" y="140" width="4" height="4" fill="#006d77"/><rect x="126" y="140" width="4" height="4" fill="#006d77"/><rect x="138" y="140" width="4" height="4" fill="#006d77"/><rect x="86" y="144" width="4" height="4" fill="#006d77"/><rect x="94" y="144" width="4" height="4" fill="#006d77"/><rect x="106" y="144" width="4" height="4" fill="#006d77"/><rect x="110" y="144" width="4" height="4" fill="#006d77"/><rect x="114" y="144" width="4" height="4" fill="#006d77"/><rect x="118" y="144" width="4" height="4" fill="#006d77"/><rect x="122" y="144" width="4" height="4" fill="#006d77"/><rect x="130" y="144" width="4" height="4" fill="#006d77"/><rect x="82" y="148" width="4" height="4" fill="#006d77"/><rect x="86" y="148" width="4" height="4" fill="#006d77"/><rect x="94" y="148" width="4" height="4" fill="#006d77"/><rect x="98" y="148" width="4" height="4" fill="#006d77"/><rect x="102" y="148" width="4" height="4" fill="#006d77"/><rect x="106" y="148" width="4" height="4" fill="#006d77"/><rect x="110" y="148" width="4" height="4" fill="#006d77"/><rect x="114" y="148" width="4" height="4" fill="#006d77"/><rect x="134" y="148" width="4" height="4" fill="#006d77"/><rect x="138" y="148" width="4" height="4" fill="#006d77"/><rect x="142" y="148" width="4" height="4" fill="#006d77"/><rect x="146" y="148" width="4" height="4" fill="#006d77"/><rect x="82" y="152" width="4" height="4" fill="#006d77"/><rect x="86" y="152" width="4" height="4" fill="#006d77"/><rect x="94" y="152" width="4" height="4" fill="#006d77"/><rect x="98" y="152" width="4" height="4" fill="#006d77"/><rect x="102" y="152" width="4" height="4" fill="#006d77"/><rect x="110" y="152" width="4" height="4" fill="#006d77"/><rect x="118" y="152" width="4" height="4" fill="#006d77"/><rect x="122" y="152" width="4" height="4" fill="#006d77"/><rect x="126" y="152" width="4" height="4" fill="#006d77"/><rect x="130" y="152" width="4" height="4" fill="#006d77"/><rect x="134" y="152" width="4" height="4" fill="#006d77"/><rect x="142" y="152" width="4" height="4" fill="#006d77"/><rect x="146" y="152" width="4" height="4" fill="#006d77"/><circle cx="98" cy="104" r="20" fill="white" stroke="#006d77" stroke-width="1.5"/><g transform="translate(98,104)"><g><path d="M -8 -2 Q -8 -8 0 -8 Q 8 -8 8 -2 L 8 4 Q 8 7 5 7 L 4 7 Q 4 4 2 4 L -2 4 Q -4 4 -4 7 L -5 7 Q -8 7 -8 4 Z" fill="#006d77"/><circle cx="0" cy="-2" r="1.5" fill="white"/></g></g><text x="100" y="216" text-anchor="middle" fill="#666" font-size="9" font-family="PingFang SC,Microsoft YaHei,sans-serif">扫码关注</text><text x="100" y="228" text-anchor="middle" fill="#006d77" font-size="11" font-weight="700" font-family="PingFang SC,Microsoft YaHei,sans-serif">客服微信</text></svg>