<svg xmlns="http://www.w3.org/2000/svg" viewBox="0 0 200 240" width="200" height="240"><defs><filter id="shdw"><feDropShadow dx="0" dy="3" stdDeviation="3" flood-color="#000" flood-opacity="0.12"/></filter><linearGradient id="brand" x1="0" x2="1" y1="0" y2="1"><stop offset="0" stop-color="#006d77"/><stop offset="1" stop-color="#2a9d8f"/></linearGradient></defs><rect x="6" y="6" width="188" height="228" rx="14" fill="white" filter="url(#shdw)"/><path d="M 6 6 L 194 6 Q 200 6 200 12 L 200 38 L 6 38 Z" fill="url(#brand)"/><g transform="translate(28,22)"><g><rect x="-7" y="-6" width="14" height="11" rx="1.5" fill="#006d77"/><path d="M -7 -3 L 7 -3" stroke="white" stroke-width="1.5"/><path d="M -3 -6 L -3 -8 Q -3 -9 -2 -9 L 2 -9 Q 3 -9 3 -8 L 3 -6" stroke="#006d77" stroke-width="1.2" fill="none"/></g></g><text x="52" y="20" fill="white" font-size="11" font-weight="800" font-family="PingFang SC,Microsoft YaHei,sans-serif">营养商城</text><text x="52" y="32" fill="white" font-size="7" letter-spacing="1" font-family="Arial,sans-serif" opacity="0.9">HOUSHENG MALL</text><rect x="50" y="56" width="28" height="28" fill="#006d77"/><rect x="54" y="60" width="20" height="20" fill="white"/><rect x="58" y="64" width="12" height="12" fill="#006d77"/><rect x="122" y="56" width="28" height="28" fill="#006d77"/><rect x="126" y="60" width="20" height="20" fill="white"/><rect x="130" y="64" width="12" height="12" fill="#006d77"/><rect x="50" y="128" width="28" height="28" fill="#006d77"/><rect x="54" y="132" width="20" height="20" fill="white"/><rect x="58" y="136" width="12" height="12" fill="#006d77"/><rect x="82" y="80" width="4" height="4" fill="#006d77"/><rect x="74" y="88" width="4" height="4" fill="#006d77"/><rect x="86" y="80" width="4" height="4" fill="white"/><rect x="74" y="92" width="4" height="4" fill="white"/><rect x="90" y="80" width="4" height="4" fill="#006d77"/><rect x="74" y="96" width="4" height="4" fill="#006d77"/><rect x="94" y="80" width="4" height="4" fill="white"/><rect x="74" y="100" width="4" height="4" fill="white"/><rect x="98" y="80" width="4" height="4" fill="#006d77"/><rect x="74" y="104" width="4" height="4" fill="#006d77"/><rect x="102" y="80" width="4" height="4" fill="white"/><rect x="74" y="108" width="4" height="4" fill="white"/><rect x="106" y="80" width="4" height="4" fill="#006d77"/><rect x="74" y="112" width="4" height="4" fill="#006d77"/><rect x="110" y="80" width="4" height="4" fill="white"/><rect x="74" y="116" width="4" height="4" fill="white"/><rect x="114" y="80" width="4" height="4" fill="#006d77"/><rect x="74" y="120" width="4" height="4" fill="#006d77"/><rect x="118" y="80" width="4" height="4" fill="white"/><rect x="74" y="124" width="4" height="4" fill="white"/><rect x="86" y="56" width="4" height="4" fill="#006d77"/><rect x="94" y="56" width="4" height="4" fill="#006d77"/><rect x="102" y="56" width="4" height="4" fill="#006d77"/><rect x="106" y="56" width="4" height="4" fill="#006d77"/><rect x="114" y="56" width="4" height="4" fill="#006d77"/><rect x="82" y="60" width="4" height="4" fill="#006d77"/><rect x="98" y="60" width="4" height="4" fill="#006d77"/><rect x="102" y="60" width="4" height="4" fill="#006d77"/><rect x="110" y="60" width="4" height="4" fill="#006d77"/><rect x="114" y="60" width="4" height="4" fill="#006d77"/><rect x="118" y="60" width="4" height="4" fill="#006d77"/><rect x="86" y="64" width="4" height="4" fill="#006d77"/><rect x="94" y="64" width="4" height="4" fill="#006d77"/><rect x="98" y="64" width="4" height="4" fill="#006d77"/><rect x="102" y="64" width="4" height="4" fill="#006d77"/><rect x="86" y="68" width="4" height="4" fill="#006d77"/><rect x="94" y="68" width="4" height="4" fill="#006d77"/><rect x="110" y="68" width="4" height="4" fill="#006d77"/><rect x="114" y="68" width="4" height="4" fill="#006d77"/><rect x="118" y="68" width="4" height="4" fill="#006d77"/><rect x="82" y="72" width="4" height="4" fill="#006d77"/><rect x="86" y="72" width="4" height="4" fill="#006d77"/><rect x="90" y="72" width="4" height="4" fill="#006d77"/><rect x="94" y="72" width="4" height="4" fill="#006d77"/><rect x="102" y="72" width="4" height="4" fill="#006d77"/><rect x="110" y="72" width="4" height="4" fill="#006d77"/><rect x="114" y="72" width="4" height="4" fill="#006d77"/><rect x="118" y="76" width="4" height="4" fill="#006d77"/><rect x="90" y="80" width="4" height="4" fill="#006d77"/><rect x="106" y="80" width="4" height="4" fill="#006d77"/><rect x="110" y="80" width="4" height="4" fill="#006d77"/><rect x="118" y="80" width="4" height="4" fill="#006d77"/><rect x="86" y="84" width="4" height="4" fill="#006d77"/><rect x="90" y="84" width="4" height="4" fill="#006d77"/><rect x="94" y="84" width="4" height="4" fill="#006d77"/><rect x="98" y="84" width="4" height="4" fill="#006d77"/><rect x="102" y="84" width="4" height="4" fill="#006d77"/><rect x="114" y="84" width="4" height="4" fill="#006d77"/><rect x="66" y="88" width="4" height="4" fill="#006d77"/><rect x="70" y="88" width="4" height="4" fill="#006d77"/><rect x="74" y="88" width="4" height="4" fill="#006d77"/><rect x="118" y="88" width="4" height="4" fill="#006d77"/><rect x="122" y="88" width="4" height="4" fill="#006d77"/><rect x="130" y="88" width="4" height="4" fill="#006d77"/><rect x="134" y="88" width="4" height="4" fill="#006d77"/><rect x="138" y="88" width="4" height="4" fill="#006d77"/><rect x="142" y="88" width="4" height="4" fill="#006d77"/><rect x="66" y="92" width="4" height="4" fill="#006d77"/><rect x="70" y="92" width="4" height="4" fill="#006d77"/><rect x="74" y="92" width="4" height="4" fill="#006d77"/><rect x="78" y="92" width="4" height="4" fill="#006d77"/><rect x="126" y="92" width="4" height="4" fill="#006d77"/><rect x="130" y="92" width="4" height="4" fill="#006d77"/><rect x="134" y="92" width="4" height="4" fill="#006d77"/><rect x="142" y="92" width="4" height="4" fill="#006d77"/><rect x="54" y="96" width="4" height="4" fill="#006d77"/><rect x="66" y="96" width="4" height="4" fill="#006d77"/><rect x="70" y="96" width="4" height="4" fill="#006d77"/><rect x="74" y="96" width="4" height="4" fill="#006d77"/><rect x="118" y="96" width="4" height="4" fill="#006d77"/><rect x="146" y="96" width="4" height="4" fill="#006d77"/><rect x="58" y="100" width="4" height="4" fill="#006d77"/><rect x="62" y="100" width="4" height="4" fill="#006d77"/><rect x="66" y="100" width="4" height="4" fill="#006d77"/><rect x="74" y="100" width="4" height="4" fill="#006d77"/><rect x="78" y="100" width="4" height="4" fill="#006d77"/><rect x="126" y="100" width="4" height="4" fill="#006d77"/><rect x="130" y="100" width="4" height="4" fill="#006d77"/><rect x="138" y="100" width="4" height="4" fill="#006d77"/><rect x="142" y="100" width="4" height="4" fill="#006d77"/><rect x="146" y="100" width="4" height="4" fill="#006d77"/><rect x="54" y="104" width="4" height="4" fill="#006d77"/><rect x="66" y="104" width="4" height="4" fill="#006d77"/><rect x="70" y="104" width="4" height="4" fill="#006d77"/><rect x="138" y="104" width="4" height="4" fill="#006d77"/><rect x="54" y="108" width="4" height="4" fill="#006d77"/><rect x="58" y="108" width="4" height="4" fill="#006d77"/><rect x="62" y="108" width="4" height="4" fill="#006d77"/><rect x="70" y="108" width="4" height="4" fill="#006d77"/><rect x="78" y="108" width="4" height="4" fill="#006d77"/><rect x="118" y="108" width="4" height="4" fill="#006d77"/><rect x="122" y="108" width="4" height="4" fill="#006d77"/><rect x="138" y="108" width="4" height="4" fill="#006d77"/><rect x="146" y="108" width="4" height="4" fill="#006d77"/><rect x="54" y="112" width="4" height="4" fill="#006d77"/><rect x="62" y="112" width="4" height="4" fill="#006d77"/><rect x="74" y="112" width="4" height="4" fill="#006d77"/><rect x="78" y="112" width="4" height="4" fill="#006d77"/><rect x="118" y="112" width="4" height="4" fill="#006d77"/><rect x="126" y="112" width="4" height="4" fill="#006d77"/><rect x="138" y="112" width="4" height="4" fill="#006d77"/><rect x="142" y="112" width="4" height="4" fill="#006d77"/><rect x="146" y="112" width="4" height="4" fill="#006d77"/><rect x="54" y="116" width="4" height="4" fill="#006d77"/><rect x="62" y="116" width="4" height="4" fill="#006d77"/><rect x="66" y="116" width="4" height="4" fill="#006d77"/><rect x="70" y="116" width="4" height="4" fill="#006d77"/><rect x="74" y="116" width="4" height="4" fill="#006d77"/><rect x="78" y="116" width="4" height="4" fill="#006d77"/><rect x="118" y="116" width="4" height="4" fill="#006d77"/><rect x="126" y="116" width="4" height="4" fill="#006d77"/><rect x="130" y="116" width="4" height="4" fill="#006d77"/><rect x="138" y="116" width="4" height="4" fill="#006d77"/><rect x="50" y="120" width="4" height="4" fill="#006d77"/><rect x="58" y="120" width="4" height="4" fill="#006d77"/><rect x="66" y="120" width="4" height="4" fill="#006d77"/><rect x="70" y="120" width="4" height="4" fill="#006d77"/><rect x="118" y="120" width="4" height="4" fill="#006d77"/><rect x="122" y="120" width="4" height="4" fill="#006d77"/><rect x="126" y="120" width="4" height="4" fill="#006d77"/><rect x="130" y="120" width="4" height="4" fill="#006d77"/><rect x="138" y="120" width="4" height="4" fill="#006d77"/><rect x="142" y="120" width="4" height="4" fill="#006d77"/><rect x="146" y="120" width="4" height="4" fill="#006d77"/><rect x="50" y="124" width="4" height="4" fill="#006d77"/><rect x="62" y="124" width="4" height="4" fill="#006d77"/><rect x="82" y="124" width="4" height="4" fill="#006d77"/><rect x="90" y="124" width="4" height="4" fill="#006d77"/><rect x="94" y="124" width="4" height="4" fill="#006d77"/><rect x="98" y="124" width="4" height="4" fill="#006d77"/><rect x="102" y="124" width="4" height="4" fill="#006d77"/><rect x="110" y="124" width="4" height="4" fill="#006d77"/><rect x="122" y="124" width="4" height="4" fill="#006d77"/><rect x="134" y="124" width="4" height="4" fill="#006d77"/><rect x="138" y="124" width="4" height="4" fill="#006d77"/><rect x="146" y="124" width="4" height="4" fill="#006d77"/><rect x="90" y="128" width="4" height="4" fill="#006d77"/><rect x="110" y="128" width="4" height="4" fill="#006d77"/><rect x="126" y="128" width="4" height="4" fill="#006d77"/><rect x="134" y="128" width="4" height="4" fill="#006d77"/><rect x="138" y="128" width="4" height="4" fill="#006d77"/><rect x="146" y="128" width="4" height="4" fill="#006d77"/><rect x="82" y="132" width="4" height="4" fill="#006d77"/><rect x="90" y="132" width="4" height="4" fill="#006d77"/><rect x="94" y="132" width="4" height="4" fill="#006d77"/><rect x="110" y="132" width="4" height="4" fill="#006d77"/><rect x="114" y="132" width="4" height="4" fill="#006d77"/><rect x="138" y="132" width="4" height="4" fill="#006d77"/><rect x="142" y="132" width="4" height="4" fill="#006d77"/><rect x="82" y="136" width="4" height="4" fill="#006d77"/><rect x="90" y="136" width="4" height="4" fill="#006d77"/><rect x="94" y="136" width="4" height="4" fill="#006d77"/><rect x="98" y="136" width="4" height="4" fill="#006d77"/><rect x="102" y="136" width="4" height="4" fill="#006d77"/><rect x="106" y="136" width="4" height="4" fill="#006d77"/><rect x="114" y="136" width="4" height="4" fill="#006d77"/><rect x="130" y="136" width="4" height="4" fill="#006d77"/><rect x="134" y="136" width="4" height="4" fill="#006d77"/><rect x="82" y="140" width="4" height="4" fill="#006d77"/><rect x="86" y="140" width="4" height="4" fill="#006d77"/><rect x="94" y="140" width="4" height="4" fill="#006d77"/><rect x="98" y="140" width="4" height="4" fill="#006d77"/><rect x="106" y="140" width="4" height="4" fill="#006d77"/><rect x="110" y="140" width="4" height="4" fill="#006d77"/><rect x="114" y="140" width="4" height="4" fill="#006d77"/><rect x="118" y="140" width="4" height="4" fill="#006d77"/><rect x="126" y="140" width="4" height="4" fill="#006d77"/><rect x="130" y="140" width="4" height="4" fill="#006d77"/><rect x="142" y="140" width="4" height="4" fill="#006d77"/><rect x="82" y="144" width="4" height="4" fill="#006d77"/><rect x="86" y="144" width="4" height="4" fill="#006d77"/><rect x="90" y="144" width="4" height="4" fill="#006d77"/><rect x="94" y="144" width="4" height="4" fill="#006d77"/><rect x="118" y="144" width="4" height="4" fill="#006d77"/><rect x="122" y="144" width="4" height="4" fill="#006d77"/><rect x="82" y="148" width="4" height="4" fill="#006d77"/><rect x="90" y="148" width="4" height="4" fill="#006d77"/><rect x="106" y="148" width="4" height="4" fill="#006d77"/><rect x="114" y="148" width="4" height="4" fill="#006d77"/><rect x="126" y="148" width="4" height="4" fill="#006d77"/><rect x="130" y="148" width="4" height="4" fill="#006d77"/><rect x="142" y="148" width="4" height="4" fill="#006d77"/><rect x="82" y="152" width="4" height="4" fill="#006d77"/><rect x="86" y="152" width="4" height="4" fill="#006d77"/><rect x="122" y="152" width="4" height="4" fill="#006d77"/><rect x="126" y="152" width="4" height="4" fill="#006d77"/><rect x="142" y="152" width="4" height="4" fill="#006d77"/><rect x="146" y="152" width="4" height="4" fill="#006d77"/><circle cx="98" cy="104" r="20" fill="white" stroke="#006d77" stroke-width="1.5"/><g transform="translate(98,104)"><g><rect x="-7" y="-6" width="14" height="11" rx="1.5" fill="#006d77"/><path d="M -7 -3 L 7 -3" stroke="white" stroke-width="1.5"/><path d="M -3 -6 L -3 -8 Q -3 -9 -2 -9 L 2 -9 Q 3 -9 3 -8 L 3 -6" stroke="#006d77" stroke-width="1.2" fill="none"/></g></g><text x="100" y="216" text-anchor="middle" fill="#666" font-size="9" font-family="PingFang SC,Microsoft YaHei,sans-serif">扫码关注</text><text x="100" y="228" text-anchor="middle" fill="#006d77" font-size="11" font-weight="700" font-family="PingFang SC,Microsoft YaHei,sans-serif">营养商城</text></svg>