<svg xmlns="http://www.w3.org/2000/svg" viewBox="0 0 200 240" width="200" height="240"><defs><linearGradient id="bg-WHEY PROTEIN" x1="0" x2="0" y1="0" y2="1"><stop offset="0" stop-color="#5ec5b8"/><stop offset="1" stop-color="#1a5d52"/></linearGradient><linearGradient id="lb-WHEY PROTEIN" x1="0" x2="0" y1="0" y2="1"><stop offset="0" stop-color="#006d77"/><stop offset="1" stop-color="#1a5d52"/></linearGradient><linearGradient id="cap-WHEY PROTEIN" x1="0" x2="0" y1="0" y2="1"><stop offset="0" stop-color="#3a4a5a"/><stop offset="1" stop-color="#2a9d8f"/></linearGradient><radialGradient id="sh-WHEY PROTEIN" cx="0.3" cy="0.4" r="0.4"><stop offset="0" stop-color="white" stop-opacity="0.45"/><stop offset="1" stop-color="white" stop-opacity="0"/></radialGradient><filter id="f-WHEY PROTEIN"><feDropShadow dx="0" dy="6" stdDeviation="4" flood-color="#000" flood-opacity="0.18"/></filter></defs><ellipse cx="100" cy="222" rx="62" ry="6" fill="#000" opacity="0.12"/><g filter="url(#f-WHEY PROTEIN)"><rect x="78" y="36" width="44" height="14" rx="2" fill="url(#bg-WHEY PROTEIN)" opacity="0.85"/><path d="M 60 60 Q 60 50 78 50 L 122 50 Q 140 50 140 60 L 140 210 Q 140 220 130 220 L 70 220 Q 60 220 60 210 Z" fill="url(#bg-WHEY PROTEIN)"/><ellipse cx="78" cy="120" rx="8" ry="70" fill="url(#sh-WHEY PROTEIN)"/><path d="M 64 60 Q 64 52 78 52 L 78 218 L 70 218 Q 64 218 64 210 Z" fill="white" opacity="0.15"/></g><g filter="url(#f-WHEY PROTEIN)"><rect x="72" y="14" width="56" height="40" rx="6" fill="url(#cap-WHEY PROTEIN)"/><rect x="76" y="18" width="48" height="6" rx="2" fill="white" opacity="0.25"/><line x1="72" y1="34" x2="128" y2="34" stroke="#000" stroke-opacity="0.2" stroke-width="0.5"/><line x1="72" y1="38" x2="128" y2="38" stroke="#000" stroke-opacity="0.2" stroke-width="0.5"/><line x1="72" y1="42" x2="128" y2="42" stroke="#000" stroke-opacity="0.2" stroke-width="0.5"/><line x1="72" y1="46" x2="128" y2="46" stroke="#000" stroke-opacity="0.2" stroke-width="0.5"/></g><rect x="60" y="48" width="80" height="4" fill="#000" opacity="0.12"/><g><rect x="64" y="80" width="72" height="120" rx="3" fill="url(#lb-WHEY PROTEIN)"/><rect x="64" y="80" width="72" height="3" fill="white" opacity="0.2"/><rect x="64" y="194" width="72" height="6" fill="#000" opacity="0.15"/><rect x="64" y="86" width="72" height="2" fill="white" opacity="0.4"/><g transform="translate(100,104)"><g fill="white"><rect x="-5" y="-2" width="10" height="6" rx="1"/><rect x="-3" y="-5" width="6" height="3" fill="#006d77"/><line x1="-3" y1="0" x2="3" y2="0" stroke="#006d77" stroke-width="0.5"/></g></g><text x="100" y="138" text-anchor="middle" fill="white" font-size="13" font-weight="800" font-family="PingFang SC,Microsoft YaHei,sans-serif">乳清蛋白粉</text><text x="100" y="152" text-anchor="middle" fill="white" font-size="6" letter-spacing="1.5" font-family="Arial,sans-serif" opacity="0.9">WHEY PROTEIN</text><line x1="80" y1="158" x2="120" y2="158" stroke="white" stroke-opacity="0.4" stroke-width="0.5"/><text x="100" y="170" text-anchor="middle" fill="white" font-size="5.5" font-family="Arial,sans-serif" opacity="0.85">NET WT</text><text x="100" y="180" text-anchor="middle" fill="white" font-size="9" font-weight="700" font-family="Arial,sans-serif">1kg / 罐</text><text x="100" y="192" text-anchor="middle" fill="white" font-size="4" letter-spacing="2" font-family="PingFang SC,sans-serif" opacity="0.85">HOUSHENG · 厚生</text></g><g transform="translate(155,12)"><path d="M 0 0 L 30 0 L 30 30 L 15 24 L 0 30 Z" fill="#c0392b"/><text x="15" y="16" text-anchor="middle" fill="white" font-size="9" font-weight="700" font-family="PingFang SC,Microsoft YaHei,sans-serif">热卖</text></g></svg>